<svg width="206" height="206" viewBox="0 0 206 206" fill="none" xmlns="http://www.w3.org/2000/svg">
<g clip-path="url(#clip0_199_6)">
<path fill-rule="evenodd" clip-rule="evenodd" d="M168 24C168 24 145.291 -0.199956 99.3813 0.482044C75.4503 0.835044 45.4743 9.80605 20.0003 42C20.0003 42 -21.9707 94.731 17.0003 160H132C132 160 153 159.482 153 136C153 115.389 132 114 132 114H72.0003C72.0003 114 37.6363 110.032 34.0003 70C34.0003 70 32.8283 33.046 72.0003 24H168Z" fill="#529DFF"/>
<path fill-rule="evenodd" clip-rule="evenodd" d="M188 46C188 46 222.423 86.662 197 145C172.323 201.627 114 205 114 205C114 205 69.16 210.938 38 182H131C131 182 175 182.391 175 135C175 93.856 134 92 134 92H75C75 92 56 87.78 56 68C56 48.22 75 46 75 46H188Z" fill="#3D4E7C"/>
</g>
<defs>
<clipPath id="clip0_199_6">
<rect width="206" height="206" fill="white"/>
</clipPath>
</defs>
</svg>
