<svg width="728" height="206" viewBox="0 0 728 206" fill="none" xmlns="http://www.w3.org/2000/svg">
<path fill-rule="evenodd" clip-rule="evenodd" d="M168 24C168 24 145.291 -0.199956 99.3813 0.482044C75.4503 0.835044 45.4743 9.80605 20.0003 42C20.0003 42 -21.9707 94.731 17.0003 160H132C132 160 153 159.482 153 136C153 115.389 132 114 132 114H72.0003C72.0003 114 37.6363 110.032 34.0003 70C34.0003 70 32.8283 33.046 72.0003 24H168Z" fill="white"/>
<path fill-rule="evenodd" clip-rule="evenodd" d="M188 46C188 46 222.423 86.662 197 145C172.323 201.627 114 205 114 205C114 205 69.16 210.938 38 182H131C131 182 175 182.391 175 135C175 93.856 134 92 134 92H75C75 92 56 87.78 56 68C56 48.22 75 46 75 46H188Z" fill="#3D4E7C"/>
<path d="M255.091 166.711C249.64 166.711 244.871 165.446 240.783 162.915C236.792 160.385 233.678 156.832 231.439 152.257C229.298 147.683 228.227 142.232 228.227 135.905V88.6013H243.265V131.817C243.265 136.295 243.946 140.188 245.309 143.497C246.769 146.709 248.813 149.191 251.441 150.943C254.166 152.695 257.427 153.571 261.223 153.571C264.046 153.571 266.625 153.133 268.961 152.257C271.297 151.284 273.292 149.97 274.947 148.315C276.699 146.661 278.062 144.665 279.035 142.329C280.008 139.993 280.495 137.463 280.495 134.737V88.6013H295.533V165.251H280.495V149.191L283.123 147.439C281.955 151.041 279.96 154.301 277.137 157.221C274.412 160.141 271.151 162.477 267.355 164.229C263.559 165.884 259.471 166.711 255.091 166.711ZM316.625 165.251V88.6013H331.663V104.369L329.035 106.121C330.009 102.715 331.907 99.6 334.729 96.7773C337.552 93.8573 340.91 91.5213 344.803 89.7693C348.697 87.92 352.687 86.9953 356.775 86.9953C362.615 86.9953 367.482 88.1633 371.375 90.4993C375.269 92.738 378.189 96.1933 380.135 100.865C382.082 105.537 383.055 111.426 383.055 118.531V165.251H368.017V119.553C368.017 115.173 367.433 111.572 366.265 108.749C365.097 105.829 363.297 103.737 360.863 102.471C358.43 101.109 355.413 100.525 351.811 100.719C348.891 100.719 346.215 101.206 343.781 102.179C341.348 103.055 339.207 104.321 337.357 105.975C335.605 107.63 334.194 109.577 333.123 111.815C332.15 113.957 331.663 116.293 331.663 118.823V165.251H324.217C322.952 165.251 321.687 165.251 320.421 165.251C319.156 165.251 317.891 165.251 316.625 165.251ZM448.171 165.251V63.0513H463.939V150.067H511.827V165.251H448.171ZM564.694 166.711C556.81 166.711 549.802 165.057 543.67 161.747C537.635 158.341 532.866 153.717 529.362 147.877C525.955 142.037 524.252 135.321 524.252 127.729C524.252 121.695 525.225 116.195 527.172 111.231C529.119 106.267 531.795 101.985 535.202 98.3833C538.706 94.6847 542.843 91.862 547.612 89.9153C552.479 87.8713 557.735 86.8493 563.38 86.8493C568.344 86.8493 572.967 87.8227 577.25 89.7693C581.533 91.6187 585.231 94.198 588.346 97.5073C591.558 100.817 593.991 104.759 595.646 109.333C597.398 113.811 598.225 118.726 598.128 124.079L597.982 130.503H535.348L531.99 118.531H584.988L582.798 121.013V117.509C582.506 114.297 581.435 111.426 579.586 108.895C577.737 106.365 575.401 104.369 572.578 102.909C569.755 101.449 566.689 100.719 563.38 100.719C558.124 100.719 553.695 101.741 550.094 103.785C546.493 105.732 543.767 108.652 541.918 112.545C540.069 116.341 539.144 121.062 539.144 126.707C539.144 132.061 540.263 136.733 542.502 140.723C544.741 144.617 547.904 147.634 551.992 149.775C556.08 151.917 560.801 152.987 566.154 152.987C569.95 152.987 573.454 152.355 576.666 151.089C579.975 149.824 583.528 147.537 587.324 144.227L594.916 154.885C592.58 157.221 589.709 159.265 586.302 161.017C582.993 162.769 579.44 164.181 575.644 165.251C571.945 166.225 568.295 166.711 564.694 166.711ZM650.241 166.711C642.357 166.711 635.349 165.057 629.217 161.747C623.182 158.341 618.413 153.717 614.909 147.877C611.502 142.037 609.799 135.321 609.799 127.729C609.799 121.695 610.772 116.195 612.719 111.231C614.666 106.267 617.342 101.985 620.749 98.3833C624.253 94.6847 628.39 91.862 633.159 89.9153C638.026 87.8713 643.282 86.8493 648.927 86.8493C653.891 86.8493 658.514 87.8227 662.797 89.7693C667.08 91.6187 670.778 94.198 673.893 97.5073C677.105 100.817 679.538 104.759 681.193 109.333C682.945 113.811 683.772 118.726 683.675 124.079L683.529 130.503H620.895L617.537 118.531H670.535L668.345 121.013V117.509C668.053 114.297 666.982 111.426 665.133 108.895C663.284 106.365 660.948 104.369 658.125 102.909C655.302 101.449 652.236 100.719 648.927 100.719C643.671 100.719 639.242 101.741 635.641 103.785C632.04 105.732 629.314 108.652 627.465 112.545C625.616 116.341 624.691 121.062 624.691 126.707C624.691 132.061 625.81 136.733 628.049 140.723C630.288 144.617 633.451 147.634 637.539 149.775C641.627 151.917 646.348 152.987 651.701 152.987C655.497 152.987 659.001 152.355 662.213 151.089C665.522 149.824 669.075 147.537 672.871 144.227L680.463 154.885C678.127 157.221 675.256 159.265 671.849 161.017C668.54 162.769 664.987 164.181 661.191 165.251C657.492 166.225 653.842 166.711 650.241 166.711Z" fill="#FDFDFD"/>
</svg>
